<svg width="115" height="115" viewBox="0 0 115 115" fill="none" xmlns="http://www.w3.org/2000/svg">
<path d="M115 57.5C115 89.2564 89.2564 115 57.5 115C25.7436 115 0 89.2564 0 57.5C0 25.7436 25.7436 0 57.5 0C89.2564 0 115 25.7436 115 57.5Z" fill="#BAE6FD"/>
<path fill-rule="evenodd" clip-rule="evenodd" d="M57.5 111.406C87.2716 111.406 111.406 87.2716 111.406 57.5C111.406 27.7284 87.2716 3.59375 57.5 3.59375C27.7284 3.59375 3.59375 27.7284 3.59375 57.5C3.59375 87.2716 27.7284 111.406 57.5 111.406ZM57.5 115C89.2564 115 115 89.2564 115 57.5C115 25.7436 89.2564 0 57.5 0C25.7436 0 0 25.7436 0 57.5C0 89.2564 25.7436 115 57.5 115Z" fill="white"/>
</svg>
