<svg width="64" height="64" viewBox="0 0 64 64" fill="none" xmlns="http://www.w3.org/2000/svg">
<path d="M18.6666 50.6668C21.6121 50.6668 23.9999 48.2791 23.9999 45.3335C23.9999 42.3879 21.6121 40.0001 18.6666 40.0001C15.7211 40.0001 13.3333 42.3879 13.3333 45.3335C13.3333 48.2791 15.7211 50.6668 18.6666 50.6668Z" stroke="#7E22CE" stroke-width="1.5" stroke-miterlimit="1.5" stroke-linecap="round" stroke-linejoin="round"/>
<path d="M45.3333 50.6668C48.2789 50.6668 50.6667 48.2791 50.6667 45.3335C50.6667 42.3879 48.2789 40.0001 45.3333 40.0001C42.3877 40.0001 40 42.3879 40 45.3335C40 48.2791 42.3877 50.6668 45.3333 50.6668Z" stroke="#7E22CE" stroke-width="1.5" stroke-miterlimit="1.5" stroke-linecap="round" stroke-linejoin="round"/>
<path d="M37.3333 45.3335V17.6001C37.3333 16.7165 36.617 16.0001 35.7332 16.0001H6.93325C6.0496 16.0001 5.33325 16.7165 5.33325 17.6001V43.7335C5.33325 44.6172 6.0496 45.3335 6.93325 45.3335H12.3999" stroke="#7E22CE" stroke-width="1.5" stroke-linecap="round"/>
<path d="M37.3334 45.3335H24.1335" stroke="#7E22CE" stroke-width="1.5" stroke-linecap="round"/>
<path d="M37.3333 24.0001H52.2935C52.9258 24.0001 53.4989 24.3725 53.7557 24.9503L58.5287 35.6897C58.6197 35.8945 58.6666 36.1159 58.6666 36.3396V43.7335C58.6666 44.6172 57.9503 45.3335 57.0666 45.3335H51.9999" stroke="#7E22CE" stroke-width="1.5" stroke-linecap="round"/>
<path d="M37.3333 45.3335H39.9999" stroke="#7E22CE" stroke-width="1.5" stroke-linecap="round"/>
</svg>
