<svg width="319" height="302" viewBox="0 0 319 302" fill="none" xmlns="http://www.w3.org/2000/svg">
<ellipse cx="255.499" cy="5.39071" rx="5.56233" ry="5.39071" fill="#E0F2FE"/>
<ellipse cx="30.1292" cy="45.7441" rx="29.7867" ry="28.8676" fill="#F59E0B"/>
<ellipse cx="301.033" cy="71.5264" rx="17.8962" ry="17.344" fill="#A855F7"/>
<ellipse cx="227.174" cy="267.889" rx="9.92858" ry="9.62224" fill="#E0F2FE"/>
<path d="M122.031 299.964C122.72 287.299 126.969 275.058 134.319 264.565C141.668 254.072 151.838 245.726 163.728 240.429C175.618 235.133 188.777 233.088 201.779 234.516C214.782 235.943 227.135 240.789 237.501 248.529L213.165 279.143C208.558 275.704 203.069 273.55 197.291 272.916C191.512 272.281 185.665 273.19 180.381 275.544C175.097 277.897 170.578 281.606 167.312 286.269C164.046 290.932 162.158 296.372 161.852 302L122.031 299.964Z" fill="#7DD3FC"/>
</svg>
